<?xml version="1.0" encoding="UTF-8"?>
<svg id="Layer_1" data-name="Layer 1" xmlns="http://www.w3.org/2000/svg" viewBox="0 0 1024 1024">
  <defs>
    <style>
      .cls-1 {
        fill: #fffdf0;
      }

      .cls-1, .cls-2, .cls-3 {
        stroke-width: 0px;
      }

      .cls-2 {
        fill: #2d3392;
      }

      .cls-3 {
        fill: #fffbfc;
      }
    </style>
  </defs>
  <g>
    <path class="cls-2" d="m780.81,446.41l-87.63-87.63-139.39-139.39c-10.78-10.78-25-16.88-40.18-17.29-16.48-.44-32.36,6.25-44.02,17.91l-226.4,226.4c-23.04,23.04-23.04,60.53,0,83.58l138.77,138.77c11.68,11.68,27.59,18.37,44.09,17.91,15.16-.42,29.34-6.52,40.1-17.29l.62-.62c24.98-24.98,65.47-24.98,90.45,0h0c11.66,11.66,27.54,18.35,44.02,17.91,15.18-.4,29.4-6.51,40.18-17.29l139.39-139.39c23.04-23.04,23.04-60.54,0-83.58Zm-11.93,71.65l-139.39,139.39c-7.98,7.97-18.58,12.37-29.86,12.37s-21.88-4.39-29.86-12.37l-45.85-45.85h0c-6.59-6.59-17.27-6.59-23.85,0l-45.85,45.85c-7.98,7.97-18.58,12.37-29.86,12.37s-21.88-4.39-29.86-12.37l-139.39-139.39c-16.47-16.47-16.47-43.26,0-59.72l227.02-227.02c7.98-7.97,18.58-12.37,29.86-12.37s21.88,4.39,29.86,12.37l227.02,227.02c16.46,16.47,16.46,43.26,0,59.72Z"/>
    <path class="cls-2" d="m745.02,518.05l-115.54,115.54c-16.49,16.49-43.22,16.49-59.71,0l-45.84-45.84c-6.59-6.59-17.27-6.59-23.86,0h0s-11.93,11.93-11.93,11.93l-45.85,45.84c-9.9,9.9-25.96,9.9-35.86,0l-139.39-139.39c-9.9-9.9-9.9-25.96,0-35.86l87.52-87.52s.07-.08.11-.12l139.39-139.39c9.9-9.9,25.96-9.9,35.87,0l139.5,139.51,23.75,23.75,13.88,13.88,37.96,37.96c16.49,16.49,16.49,43.22,0,59.71Z"/>
    <path class="cls-2" d="m445.37,298.61c1,0,2.92.25,4.56,1.89l62.07,62.07,18.14-18.15,43.92-43.92c1.65-1.65,3.57-1.89,4.56-1.89s2.92.25,4.56,1.89l105.99,105.99c1.64,1.64,1.89,3.56,1.89,4.56s-.25,2.92-1.89,4.56l-67.07,67.07-.02.03-105.53,105.53c-1.64,1.64-3.57,1.89-4.56,1.89s-2.92-.25-4.57-1.89l-172.62-172.63c-1.64-1.65-1.89-3.56-1.89-4.56s.25-2.92,1.89-4.56l105.99-105.99c1.64-1.64,3.56-1.89,4.56-1.89Z"/>
    <polygon class="cls-1" points="296.84 488.19 379.78 405.24 379.82 405.2 512 273.02 727.16 488.19 599.63 615.72 511.99 528.09 476.21 563.9 424.37 615.72 296.84 488.19"/>
    <polygon class="cls-2" points="657.46 411.06 602.98 465.54 602.95 465.57 512 556.53 366.54 411.06 445.37 332.22 512.01 398.86 548.29 362.56 578.63 332.22 657.46 411.06"/>
    <polygon class="cls-2" points="344.55 488.19 424.37 568.01 452.34 540.05 511.98 480.36 599.63 568.01 679.45 488.19 512 320.74 404.94 427.8 404.9 427.84 344.55 488.19"/>
    <polygon class="cls-3" points="621.18 411.06 583.9 448.34 583.87 448.37 512 520.24 402.82 411.06 445.37 368.51 512.02 435.15 566.44 380.69 578.63 368.5 621.18 411.06"/>
  </g>
  <g>
    <g>
      <path class="cls-2" d="m215.36,815.06c.53,1.58.86,2.84.99,3.76.13.92-.04,1.62-.53,2.08-.48.46-1.34.75-2.58.86-1.23.11-2.93.16-5.09.16s-4-.03-5.25-.1-2.21-.2-2.87-.4c-.66-.2-1.12-.47-1.39-.83-.26-.35-.48-.81-.66-1.39l-5.75-17.17h-32.1l-5.42,16.71c-.18.62-.41,1.13-.69,1.55-.29.42-.75.75-1.39.99-.64.24-1.54.41-2.71.5-1.17.09-2.7.13-4.59.13-2.03,0-3.61-.07-4.76-.2-1.15-.13-1.94-.45-2.38-.96-.44-.51-.59-1.22-.46-2.15.13-.92.46-2.16.99-3.7l26.35-75.82c.26-.75.57-1.35.92-1.82.35-.46.91-.81,1.68-1.06.77-.24,1.84-.4,3.2-.46,1.36-.07,3.17-.1,5.42-.1,2.6,0,4.67.03,6.21.1,1.54.07,2.74.22,3.6.46.86.24,1.47.61,1.85,1.09.37.48.69,1.15.96,1.98l26.42,75.75Zm-39.23-62.67h-.07l-12.09,36.32h24.24l-12.09-36.32Z"/>
      <path class="cls-2" d="m262.91,818.49c-.22.75-.51,1.35-.86,1.82-.35.46-.92.82-1.72,1.06-.79.24-1.87.4-3.24.46-1.37.07-3.15.1-5.35.1-1.76,0-3.27-.01-4.52-.03-1.25-.02-2.32-.08-3.2-.17-.88-.09-1.6-.22-2.15-.4-.55-.18-1.01-.4-1.39-.66-.37-.26-.66-.58-.86-.96-.2-.37-.39-.85-.56-1.42l-25.43-75.75c-.53-1.59-.85-2.84-.96-3.76-.11-.92.11-1.62.66-2.08.55-.46,1.49-.75,2.81-.86,1.32-.11,3.17-.17,5.55-.17,2.02,0,3.61.04,4.76.13,1.14.09,2.02.24,2.64.46.62.22,1.05.55,1.29.99.24.44.47.99.69,1.65l20.8,65.91h.07l20.41-65.58c.18-.75.4-1.35.66-1.82.26-.46.72-.83,1.35-1.09.64-.26,1.55-.44,2.74-.53,1.19-.09,2.82-.13,4.89-.13s3.6.07,4.72.2c1.12.13,1.89.45,2.31.96.42.51.55,1.22.4,2.15-.16.92-.5,2.16-1.02,3.7l-25.49,75.82Z"/>
      <path class="cls-2" d="m363.16,815.06c.53,1.58.86,2.84.99,3.76.13.92-.04,1.62-.53,2.08-.48.46-1.34.75-2.58.86-1.23.11-2.93.16-5.09.16s-4-.03-5.25-.1-2.21-.2-2.87-.4c-.66-.2-1.12-.47-1.39-.83-.26-.35-.48-.81-.66-1.39l-5.75-17.17h-32.1l-5.42,16.71c-.18.62-.41,1.13-.69,1.55-.29.42-.75.75-1.39.99-.64.24-1.54.41-2.71.5-1.17.09-2.7.13-4.59.13-2.03,0-3.61-.07-4.75-.2-1.15-.13-1.94-.45-2.38-.96-.44-.51-.59-1.22-.46-2.15.13-.92.46-2.16.99-3.7l26.35-75.82c.26-.75.57-1.35.92-1.82.35-.46.91-.81,1.68-1.06.77-.24,1.84-.4,3.2-.46,1.36-.07,3.17-.1,5.42-.1,2.6,0,4.67.03,6.21.1,1.54.07,2.74.22,3.6.46.86.24,1.47.61,1.85,1.09.37.48.69,1.15.96,1.98l26.42,75.75Zm-39.23-62.67h-.07l-12.09,36.32h24.24l-12.09-36.32Z"/>
      <path class="cls-2" d="m392.55,819.15c0,.44-.14.84-.43,1.19-.29.35-.76.64-1.42.86-.66.22-1.54.4-2.64.53-1.1.13-2.51.2-4.23.2s-3.07-.07-4.19-.2c-1.12-.13-2.01-.31-2.67-.53-.66-.22-1.13-.51-1.42-.86-.29-.35-.43-.75-.43-1.19v-80.7c0-.44.14-.84.43-1.19.29-.35.77-.64,1.45-.86.68-.22,1.57-.4,2.67-.53,1.1-.13,2.49-.2,4.16-.2s3.13.07,4.23.2c1.1.13,1.98.31,2.64.53.66.22,1.13.51,1.42.86.29.35.43.75.43,1.19v80.7Z"/>
      <path class="cls-2" d="m458.13,814.66c0,1.32-.06,2.43-.17,3.34-.11.9-.28,1.65-.49,2.25-.22.59-.5,1.02-.83,1.29-.33.26-.72.4-1.16.4h-39.16c-1.45,0-2.67-.43-3.66-1.29-.99-.86-1.49-2.26-1.49-4.19v-77.6c0-.44.14-.84.43-1.19.29-.35.76-.64,1.42-.86.66-.22,1.55-.4,2.67-.53,1.12-.13,2.52-.2,4.19-.2s3.13.07,4.23.2c1.1.13,1.98.31,2.64.53.66.22,1.13.51,1.42.86.29.35.43.75.43,1.19v68.75h26.88c.44,0,.83.12,1.16.36.33.24.6.64.83,1.19.22.55.38,1.28.49,2.18.11.9.17,2.01.17,3.34Z"/>
    </g>
    <g>
      <path class="cls-2" d="m555.74,807.63c0,1.09-.03,2.02-.1,2.79-.07.77-.16,1.42-.29,1.97-.13.55-.31,1.02-.53,1.41-.22.39-.57.84-1.05,1.35-.48.5-1.41,1.15-2.79,1.93-1.38.79-3.06,1.54-5.05,2.26-1.99.72-4.26,1.32-6.82,1.8-2.56.48-5.32.72-8.3.72-5.82,0-11.06-.9-15.74-2.69-4.68-1.79-8.66-4.47-11.94-8.04-3.28-3.56-5.79-8.01-7.54-13.35-1.75-5.33-2.62-11.55-2.62-18.63s.96-13.62,2.89-19.22c1.92-5.6,4.61-10.3,8.07-14.1,3.45-3.8,7.6-6.69,12.43-8.66,4.83-1.97,10.16-2.95,15.97-2.95,2.36,0,4.63.2,6.82.59,2.19.39,4.21.91,6.07,1.54,1.86.63,3.53,1.37,5.02,2.2,1.49.83,2.53,1.54,3.12,2.13.59.59.99,1.08,1.21,1.48.22.39.39.9.53,1.51.13.61.23,1.33.29,2.17.07.83.1,1.86.1,3.08,0,1.31-.04,2.43-.13,3.35-.09.92-.24,1.66-.46,2.23-.22.57-.48.98-.79,1.25-.31.26-.66.39-1.05.39-.66,0-1.49-.38-2.49-1.15-1.01-.76-2.31-1.62-3.9-2.56-1.6-.94-3.5-1.79-5.71-2.56-2.21-.76-4.84-1.15-7.9-1.15-3.37,0-6.37.69-9.02,2.07-2.65,1.38-4.9,3.35-6.76,5.9-1.86,2.56-3.27,5.65-4.23,9.28-.96,3.63-1.44,7.72-1.44,12.27,0,4.99.51,9.3,1.54,12.96,1.03,3.65,2.49,6.66,4.39,9.02,1.9,2.36,4.2,4.12,6.89,5.28,2.69,1.16,5.72,1.74,9.09,1.74,3.06,0,5.71-.36,7.94-1.08,2.23-.72,4.14-1.52,5.74-2.39,1.6-.87,2.91-1.66,3.94-2.36,1.03-.7,1.83-1.05,2.39-1.05.44,0,.79.09,1.05.26.26.18.48.52.66,1.05.17.52.31,1.26.39,2.2.09.94.13,2.2.13,3.77Z"/>
      <path class="cls-2" d="m631.11,818.25c0,.48-.09.89-.26,1.21-.18.33-.59.6-1.25.82-.66.22-1.62.37-2.89.46-1.27.09-3,.13-5.18.13-1.84,0-3.3-.04-4.4-.13-1.09-.09-1.96-.25-2.59-.49-.63-.24-1.08-.55-1.35-.92-.26-.37-.48-.82-.66-1.34l-7.61-18.96c-.92-2.14-1.82-4.04-2.69-5.71-.88-1.66-1.85-3.05-2.92-4.17-1.07-1.12-2.31-1.96-3.71-2.53-1.4-.57-3.02-.85-4.85-.85h-5.38v32.34c0,.44-.14.83-.43,1.18-.29.35-.75.63-1.41.85-.66.22-1.53.39-2.62.52-1.09.13-2.49.2-4.2.2s-3.05-.07-4.17-.2-2-.31-2.66-.52c-.66-.22-1.12-.5-1.38-.85-.26-.35-.39-.74-.39-1.18v-77.08c0-1.92.49-3.31,1.48-4.17.98-.85,2.2-1.28,3.64-1.28h21.98c2.23,0,4.07.04,5.51.13,1.44.09,2.76.2,3.94.33,3.41.48,6.48,1.31,9.22,2.49,2.73,1.18,5.05,2.72,6.95,4.62s3.36,4.16,4.36,6.76c1.01,2.6,1.51,5.59,1.51,8.95,0,2.84-.36,5.43-1.08,7.77-.72,2.34-1.78,4.43-3.18,6.26-1.4,1.84-3.13,3.43-5.18,4.79-2.06,1.36-4.39,2.45-7.02,3.28,1.27.61,2.46,1.36,3.57,2.23,1.12.88,2.16,1.94,3.15,3.18.98,1.25,1.91,2.67,2.79,4.26.87,1.6,1.73,3.4,2.56,5.41l7.15,16.73c.66,1.66,1.09,2.88,1.31,3.64.22.77.33,1.37.33,1.8Zm-22.24-57.59c0-2.8-.63-5.16-1.9-7.08-1.27-1.92-3.35-3.28-6.23-4.07-.88-.22-1.87-.39-2.98-.53-1.12-.13-2.66-.2-4.62-.2h-7.74v24.07h8.79c2.45,0,4.59-.3,6.43-.89,1.84-.59,3.37-1.42,4.59-2.49,1.22-1.07,2.14-2.35,2.76-3.84.61-1.49.92-3.15.92-4.99Z"/>
      <path class="cls-2" d="m694.08,813.73c0,1.27-.06,2.33-.16,3.18-.11.85-.27,1.54-.49,2.07-.22.52-.49.91-.82,1.15-.33.24-.69.36-1.08.36h-42.64c-1.44,0-2.66-.43-3.64-1.28-.98-.85-1.48-2.24-1.48-4.17v-73.99c0-1.92.49-3.31,1.48-4.17.98-.85,2.2-1.28,3.64-1.28h42.38c.39,0,.74.11,1.05.33.31.22.57.6.79,1.15.22.55.38,1.25.49,2.1.11.85.16,1.93.16,3.25,0,1.22-.06,2.26-.16,3.12-.11.85-.27,1.54-.49,2.07-.22.52-.48.91-.79,1.15-.31.24-.66.36-1.05.36h-30.31v20.73h25.65c.39,0,.75.12,1.08.36.33.24.6.61.82,1.12.22.5.38,1.18.49,2.03.11.85.16,1.89.16,3.12s-.06,2.32-.16,3.15c-.11.83-.27,1.5-.49,2-.22.5-.49.86-.82,1.08-.33.22-.69.33-1.08.33h-25.65v23.94h30.57c.39,0,.75.12,1.08.36.33.24.6.62.82,1.15.22.52.38,1.21.49,2.07.11.85.16,1.91.16,3.18Z"/>
      <path class="cls-2" d="m779.82,776.8c0,7.78-1.02,14.44-3.05,19.97-2.03,5.53-4.95,10.05-8.76,13.55-3.8,3.5-8.43,6.07-13.87,7.71-5.44,1.64-11.93,2.46-19.45,2.46h-20.27c-1.44,0-2.66-.43-3.64-1.28-.98-.85-1.48-2.24-1.48-4.17v-73.99c0-1.92.49-3.31,1.48-4.17.98-.85,2.2-1.28,3.64-1.28h21.78c7.57,0,13.98.89,19.25,2.66,5.27,1.77,9.71,4.39,13.32,7.87,3.61,3.48,6.35,7.77,8.23,12.89,1.88,5.12,2.82,11.04,2.82,17.78Zm-17.84.59c0-4.02-.47-7.76-1.41-11.22-.94-3.45-2.45-6.45-4.53-8.99-2.08-2.54-4.75-4.52-8-5.94-3.26-1.42-7.53-2.13-12.82-2.13h-8.72v57.73h8.99c4.72,0,8.7-.61,11.94-1.84,3.24-1.22,5.94-3.07,8.1-5.54,2.16-2.47,3.78-5.54,4.85-9.22,1.07-3.67,1.61-7.96,1.61-12.86Z"/>
      <path class="cls-2" d="m811.31,818.12c0,.44-.14.83-.43,1.18-.28.35-.75.63-1.41.85-.66.22-1.53.39-2.62.52-1.09.13-2.49.2-4.2.2s-3.05-.07-4.17-.2c-1.11-.13-2-.31-2.66-.52-.66-.22-1.13-.5-1.41-.85-.28-.35-.43-.74-.43-1.18v-80.16c0-.44.14-.83.43-1.18.28-.35.76-.63,1.44-.85.68-.22,1.56-.39,2.66-.52,1.09-.13,2.47-.2,4.13-.2s3.1.07,4.2.2c1.09.13,1.97.31,2.62.52.66.22,1.13.5,1.41.85.28.35.43.74.43,1.18v80.16Z"/>
      <path class="cls-2" d="m886.28,742.68c0,1.27-.06,2.35-.16,3.25-.11.9-.27,1.62-.49,2.16-.22.55-.49.95-.82,1.21-.33.26-.69.39-1.08.39h-21.25v68.42c0,.44-.14.83-.43,1.18-.28.35-.75.63-1.41.85-.66.22-1.54.39-2.66.52s-2.5.2-4.17.2-3.05-.07-4.17-.2c-1.11-.13-2-.31-2.66-.52-.66-.22-1.13-.5-1.41-.85-.28-.35-.43-.74-.43-1.18v-68.42h-21.25c-.44,0-.81-.13-1.11-.39-.31-.26-.57-.67-.79-1.21-.22-.55-.38-1.27-.49-2.16-.11-.9-.16-1.98-.16-3.25s.05-2.43.16-3.35c.11-.92.27-1.65.49-2.2.22-.55.48-.94.79-1.18.31-.24.68-.36,1.11-.36h59.83c.39,0,.75.12,1.08.36.33.24.6.63.82,1.18.22.55.38,1.28.49,2.2.11.92.16,2.03.16,3.35Z"/>
    </g>
  </g>
</svg>