<?xml version="1.0" encoding="UTF-8"?>
<svg id="Layer_2" data-name="Layer 2" xmlns="http://www.w3.org/2000/svg" viewBox="0 0 784.67 301.58">
  <defs>
    <style>
      .cls-1 {
        stroke: #2b3790;
        stroke-miterlimit: 10;
        stroke-width: .37px;
      }

      .cls-2 {
        fill: #2d3393;
      }

      .cls-2, .cls-3, .cls-4 {
        stroke-width: 0px;
      }

      .cls-3 {
        fill: #fffef1;
      }

      .cls-4 {
        fill: #fffcfd;
      }
    </style>
  </defs>
  <g id="Layer_1-2" data-name="Layer 1">
    <path class="cls-2" d="m345.33,152.05l-54.54-54.54L204.05,10.77C197.34,4.06,188.49.26,179.05.01c-10.26-.27-20.14,3.89-27.39,11.15L10.76,152.05c-14.34,14.34-14.34,37.67,0,52.01l86.36,86.36c7.27,7.27,17.17,11.43,27.44,11.14,9.43-.26,18.26-4.06,24.96-10.76l.39-.39c15.54-15.54,40.74-15.54,56.29,0h0c7.26,7.26,17.14,11.42,27.39,11.15,9.45-.25,18.3-4.05,25-10.76l86.75-86.75c14.34-14.34,14.34-37.68,0-52.01Zm-7.42,44.59l-86.75,86.75c-4.97,4.96-11.56,7.7-18.58,7.7s-13.62-2.73-18.58-7.7l-28.53-28.53h0c-4.1-4.1-10.75-4.1-14.85,0l-28.53,28.53c-4.97,4.96-11.56,7.7-18.58,7.7s-13.62-2.73-18.58-7.7L18.18,196.64c-10.25-10.25-10.25-26.92,0-37.17L159.46,18.19c4.97-4.96,11.56-7.7,18.58-7.7s13.62,2.73,18.58,7.7l141.28,141.28c10.24,10.25,10.24,26.92,0,37.17Z"/>
    <path class="cls-2" d="m323.06,196.64l-71.9,71.9c-10.26,10.26-26.9,10.26-37.16,0l-28.53-28.53c-4.1-4.1-10.75-4.1-14.85,0h0s-7.42,7.42-7.42,7.42l-28.53,28.53c-6.16,6.16-16.15,6.16-22.32,0L25.61,189.22c-6.16-6.16-6.16-16.15,0-22.32l54.46-54.46s.04-.05.07-.07L166.89,25.62c6.16-6.16,16.16-6.16,22.32,0l86.82,86.82,14.78,14.78,8.64,8.64,23.62,23.62c10.26,10.26,10.26,26.9,0,37.16Z"/>
    <path class="cls-2" d="m136.58,60.08c.62,0,1.82.15,2.84,1.18l38.63,38.63,11.29-11.3,27.34-27.33c1.02-1.02,2.22-1.18,2.84-1.18s1.82.15,2.84,1.18l65.96,65.96c1.02,1.02,1.18,2.22,1.18,2.84s-.15,1.82-1.18,2.84l-41.74,41.74-.02.02-65.67,65.67c-1.02,1.02-2.22,1.18-2.84,1.18s-1.82-.15-2.84-1.18l-107.43-107.43c-1.02-1.02-1.18-2.22-1.18-2.84s.15-1.82,1.18-2.84l65.96-65.96c1.02-1.02,2.22-1.18,2.84-1.18Z"/>
    <polygon class="cls-3" points="44.14 178.06 95.76 126.44 95.78 126.41 178.05 44.15 311.95 178.06 232.58 257.42 178.04 202.89 155.77 225.17 123.51 257.42 44.14 178.06"/>
    <polygon class="cls-2" points="268.57 130.06 234.66 163.97 234.65 163.98 178.05 220.59 87.52 130.06 136.58 81 178.05 122.47 200.63 99.87 219.51 81 268.57 130.06"/>
    <polygon class="cls-2" points="73.84 178.06 123.51 227.73 140.92 210.33 178.04 173.19 232.58 227.73 282.25 178.06 178.05 73.85 111.42 140.48 111.4 140.5 73.84 178.06"/>
    <polygon class="cls-4" points="245.99 130.06 222.79 153.26 222.77 153.28 178.05 198.01 110.1 130.06 136.58 103.58 178.06 145.05 211.92 111.16 219.51 103.57 245.99 130.06"/>
    <g>
      <g>
        <path class="cls-1" d="m483.39,143.45c.66,1.97,1.07,3.52,1.23,4.67.16,1.15-.06,2.01-.66,2.58-.6.57-1.67.93-3.19,1.07-1.53.14-3.63.2-6.31.2s-4.96-.04-6.51-.12-2.74-.25-3.56-.49c-.82-.25-1.39-.59-1.72-1.02-.33-.44-.6-1.01-.82-1.72l-7.13-21.3h-39.81l-6.72,20.72c-.22.77-.51,1.41-.86,1.92-.36.52-.93.93-1.72,1.23-.79.3-1.91.5-3.36.61-1.45.11-3.35.16-5.69.16-2.51,0-4.48-.08-5.9-.25-1.42-.16-2.4-.56-2.95-1.19-.55-.63-.74-1.52-.57-2.66.16-1.15.57-2.67,1.23-4.59l32.68-94.03c.33-.93.71-1.68,1.15-2.25.44-.57,1.13-1.01,2.09-1.31.95-.3,2.28-.49,3.97-.57,1.69-.08,3.93-.12,6.72-.12,3.22,0,5.79.04,7.7.12,1.91.08,3.4.27,4.46.57,1.06.3,1.83.75,2.29,1.35.46.6.86,1.42,1.19,2.46l32.76,93.95Zm-48.65-77.73h-.08l-14.99,45.05h30.06l-14.99-45.05Z"/>
        <path class="cls-1" d="m542.37,147.71c-.27.93-.63,1.68-1.07,2.25-.44.57-1.15,1.01-2.13,1.31-.98.3-2.32.49-4.01.57-1.69.08-3.91.12-6.63.12-2.19,0-4.05-.01-5.61-.04-1.56-.03-2.88-.1-3.97-.2-1.09-.11-1.98-.27-2.66-.49-.68-.22-1.26-.49-1.72-.82-.46-.33-.82-.72-1.06-1.19-.25-.46-.48-1.05-.7-1.76l-31.53-93.95c-.66-1.97-1.05-3.52-1.19-4.67-.14-1.15.14-2.01.82-2.58.68-.57,1.84-.93,3.48-1.06,1.64-.14,3.93-.2,6.88-.2,2.51,0,4.48.06,5.9.16,1.42.11,2.51.3,3.28.57.76.27,1.3.68,1.6,1.23.3.55.59,1.23.86,2.05l25.8,81.74h.08l25.31-81.34c.22-.93.49-1.68.82-2.25.33-.57.89-1.02,1.68-1.35.79-.33,1.92-.55,3.4-.66,1.47-.11,3.49-.16,6.06-.16s4.46.08,5.86.25c1.39.16,2.35.56,2.87,1.19.52.63.68,1.52.49,2.66-.19,1.15-.61,2.68-1.27,4.59l-31.62,94.03Z"/>
        <path class="cls-1" d="m666.71,143.45c.66,1.97,1.07,3.52,1.23,4.67.16,1.15-.06,2.01-.66,2.58-.6.57-1.67.93-3.19,1.07-1.53.14-3.63.2-6.31.2s-4.96-.04-6.51-.12-2.74-.25-3.56-.49c-.82-.25-1.39-.59-1.72-1.02-.33-.44-.6-1.01-.82-1.72l-7.13-21.3h-39.81l-6.72,20.72c-.22.77-.5,1.41-.86,1.92-.36.52-.93.93-1.72,1.23-.79.3-1.91.5-3.36.61-1.45.11-3.35.16-5.69.16-2.51,0-4.48-.08-5.9-.25-1.42-.16-2.4-.56-2.95-1.19-.55-.63-.74-1.52-.57-2.66.16-1.15.57-2.67,1.23-4.59l32.68-94.03c.33-.93.71-1.68,1.15-2.25.44-.57,1.13-1.01,2.09-1.31.95-.3,2.28-.49,3.97-.57,1.69-.08,3.93-.12,6.72-.12,3.22,0,5.79.04,7.7.12,1.91.08,3.4.27,4.46.57,1.07.3,1.83.75,2.29,1.35.46.6.86,1.42,1.19,2.46l32.76,93.95Zm-48.65-77.73h-.08l-14.99,45.05h30.06l-14.99-45.05Z"/>
        <path class="cls-1" d="m703.16,148.53c0,.55-.18,1.04-.53,1.47-.36.44-.94.79-1.76,1.07-.82.27-1.91.49-3.28.66-1.37.16-3.11.25-5.24.25s-3.81-.08-5.2-.25c-1.39-.16-2.5-.38-3.32-.66-.82-.27-1.41-.63-1.76-1.07-.36-.44-.53-.93-.53-1.47V48.44c0-.55.18-1.04.53-1.47.35-.44.95-.79,1.8-1.07.85-.27,1.95-.49,3.32-.66,1.36-.16,3.08-.25,5.16-.25s3.88.08,5.24.25c1.36.16,2.46.38,3.28.66.82.27,1.41.63,1.76,1.07.35.44.53.93.53,1.47v100.09Z"/>
        <path class="cls-1" d="m784.49,142.47c0,1.64-.07,3.02-.21,4.14-.14,1.12-.34,2.05-.61,2.79-.27.74-.61,1.27-1.02,1.6-.41.33-.89.49-1.43.49h-48.57c-1.8,0-3.32-.53-4.55-1.6-1.23-1.07-1.84-2.8-1.84-5.2V48.44c0-.55.18-1.04.53-1.47.35-.44.94-.79,1.76-1.07.82-.27,1.93-.49,3.32-.66,1.39-.16,3.13-.25,5.2-.25s3.88.08,5.24.25c1.36.16,2.46.38,3.28.66.82.27,1.41.63,1.76,1.07.35.44.53.93.53,1.47v85.27h33.34c.55,0,1.02.15,1.43.45.41.3.75.79,1.02,1.47.27.68.48,1.58.61,2.7.14,1.12.21,2.5.21,4.14Z"/>
        <path class="cls-1" d="m452.98,243.02c0,1.09-.03,2.02-.1,2.79-.07.77-.16,1.42-.29,1.97-.13.55-.31,1.02-.53,1.41-.22.39-.57.84-1.05,1.35-.48.5-1.41,1.15-2.79,1.93-1.38.79-3.06,1.54-5.05,2.26-1.99.72-4.26,1.32-6.82,1.8-2.56.48-5.32.72-8.3.72-5.82,0-11.06-.9-15.74-2.69-4.68-1.79-8.66-4.47-11.94-8.04-3.28-3.56-5.79-8.01-7.54-13.35-1.75-5.33-2.62-11.55-2.62-18.63s.96-13.62,2.89-19.22c1.92-5.6,4.61-10.3,8.07-14.1,3.45-3.8,7.6-6.69,12.43-8.66,4.83-1.97,10.16-2.95,15.97-2.95,2.36,0,4.63.2,6.82.59,2.19.39,4.21.91,6.07,1.54,1.86.63,3.53,1.37,5.02,2.2,1.49.83,2.53,1.54,3.12,2.13.59.59.99,1.08,1.21,1.48.22.39.39.9.53,1.51.13.61.23,1.33.29,2.17.07.83.1,1.86.1,3.08,0,1.31-.04,2.43-.13,3.35-.09.92-.24,1.66-.46,2.23-.22.57-.48.98-.79,1.25-.31.26-.66.39-1.05.39-.66,0-1.49-.38-2.49-1.15-1.01-.76-2.31-1.62-3.9-2.56-1.6-.94-3.5-1.79-5.71-2.56-2.21-.76-4.84-1.15-7.9-1.15-3.37,0-6.37.69-9.02,2.07-2.65,1.38-4.9,3.35-6.76,5.9-1.86,2.56-3.27,5.65-4.23,9.28-.96,3.63-1.44,7.72-1.44,12.27,0,4.99.51,9.3,1.54,12.96,1.03,3.65,2.49,6.66,4.39,9.02,1.9,2.36,4.2,4.12,6.89,5.28,2.69,1.16,5.72,1.74,9.09,1.74,3.06,0,5.71-.36,7.94-1.08,2.23-.72,4.14-1.52,5.74-2.39,1.6-.87,2.91-1.66,3.94-2.36,1.03-.7,1.83-1.05,2.39-1.05.44,0,.79.09,1.05.26.26.18.48.52.66,1.05.17.52.31,1.26.39,2.2.09.94.13,2.2.13,3.77Z"/>
        <path class="cls-1" d="m528.35,253.64c0,.48-.09.89-.26,1.21-.18.33-.59.6-1.25.82-.66.22-1.62.37-2.89.46-1.27.09-3,.13-5.18.13-1.84,0-3.3-.04-4.4-.13-1.09-.09-1.96-.25-2.59-.49-.63-.24-1.08-.55-1.35-.92-.26-.37-.48-.82-.66-1.34l-7.61-18.96c-.92-2.14-1.82-4.04-2.69-5.71-.88-1.66-1.85-3.05-2.92-4.17-1.07-1.12-2.31-1.96-3.71-2.53-1.4-.57-3.02-.85-4.85-.85h-5.38v32.34c0,.44-.14.83-.43,1.18-.29.35-.75.63-1.41.85-.66.22-1.53.39-2.62.52-1.09.13-2.49.2-4.2.2s-3.05-.07-4.17-.2-2-.31-2.66-.52c-.66-.22-1.12-.5-1.38-.85-.26-.35-.39-.74-.39-1.18v-77.08c0-1.92.49-3.31,1.48-4.17.98-.85,2.2-1.28,3.64-1.28h21.98c2.23,0,4.07.04,5.51.13,1.44.09,2.76.2,3.94.33,3.41.48,6.48,1.31,9.22,2.49,2.73,1.18,5.05,2.72,6.95,4.62s3.36,4.16,4.36,6.76c1.01,2.6,1.51,5.59,1.51,8.95,0,2.84-.36,5.43-1.08,7.77-.72,2.34-1.78,4.43-3.18,6.26-1.4,1.84-3.13,3.43-5.18,4.79-2.06,1.36-4.39,2.45-7.02,3.28,1.27.61,2.46,1.36,3.57,2.23,1.12.88,2.16,1.94,3.15,3.18.98,1.25,1.91,2.67,2.79,4.26.87,1.6,1.73,3.4,2.56,5.41l7.15,16.73c.66,1.66,1.09,2.88,1.31,3.64.22.77.33,1.37.33,1.8Zm-22.24-57.59c0-2.8-.63-5.16-1.9-7.08-1.27-1.92-3.35-3.28-6.23-4.07-.88-.22-1.87-.39-2.98-.53-1.12-.13-2.66-.2-4.62-.2h-7.74v24.07h8.79c2.45,0,4.59-.3,6.43-.89,1.84-.59,3.37-1.42,4.59-2.49,1.22-1.07,2.14-2.35,2.76-3.84.61-1.49.92-3.15.92-4.99Z"/>
        <path class="cls-1" d="m591.32,249.12c0,1.27-.06,2.33-.16,3.18-.11.85-.27,1.54-.49,2.07-.22.52-.49.91-.82,1.15-.33.24-.69.36-1.08.36h-42.64c-1.44,0-2.66-.43-3.64-1.28-.98-.85-1.48-2.24-1.48-4.17v-73.99c0-1.92.49-3.31,1.48-4.17.98-.85,2.2-1.28,3.64-1.28h42.38c.39,0,.74.11,1.05.33.31.22.57.6.79,1.15.22.55.38,1.25.49,2.1.11.85.16,1.93.16,3.25,0,1.22-.06,2.26-.16,3.12-.11.85-.27,1.54-.49,2.07-.22.52-.48.91-.79,1.15-.31.24-.66.36-1.05.36h-30.31v20.73h25.65c.39,0,.75.12,1.08.36.33.24.6.61.82,1.12.22.5.38,1.18.49,2.03.11.85.16,1.89.16,3.12s-.06,2.32-.16,3.15c-.11.83-.27,1.5-.49,2-.22.5-.49.86-.82,1.08-.33.22-.69.33-1.08.33h-25.65v23.94h30.57c.39,0,.75.12,1.08.36.33.24.6.62.82,1.15.22.52.38,1.21.49,2.07.11.85.16,1.91.16,3.18Z"/>
        <path class="cls-1" d="m677.06,212.19c0,7.78-1.02,14.44-3.05,19.97-2.03,5.53-4.95,10.05-8.76,13.55-3.8,3.5-8.43,6.07-13.87,7.71-5.44,1.64-11.93,2.46-19.45,2.46h-20.27c-1.44,0-2.66-.43-3.64-1.28-.98-.85-1.48-2.24-1.48-4.17v-73.99c0-1.92.49-3.31,1.48-4.17.98-.85,2.2-1.28,3.64-1.28h21.78c7.57,0,13.98.89,19.25,2.66,5.27,1.77,9.71,4.39,13.32,7.87,3.61,3.48,6.35,7.77,8.23,12.89,1.88,5.12,2.82,11.04,2.82,17.78Zm-17.84.59c0-4.02-.47-7.76-1.41-11.22-.94-3.45-2.45-6.45-4.53-8.99-2.08-2.54-4.75-4.52-8-5.94-3.26-1.42-7.53-2.13-12.82-2.13h-8.72v57.73h8.99c4.72,0,8.7-.61,11.94-1.84,3.24-1.22,5.94-3.07,8.1-5.54,2.16-2.47,3.78-5.54,4.85-9.22,1.07-3.67,1.61-7.96,1.61-12.86Z"/>
        <path class="cls-1" d="m708.55,253.51c0,.44-.14.83-.43,1.18-.28.35-.75.63-1.41.85-.66.22-1.53.39-2.62.52-1.09.13-2.49.2-4.2.2s-3.05-.07-4.17-.2c-1.11-.13-2-.31-2.66-.52-.66-.22-1.13-.5-1.41-.85-.28-.35-.43-.74-.43-1.18v-80.16c0-.44.14-.83.43-1.18.28-.35.76-.63,1.44-.85.68-.22,1.56-.39,2.66-.52,1.09-.13,2.47-.2,4.13-.2s3.1.07,4.2.2c1.09.13,1.97.31,2.62.52.66.22,1.13.5,1.41.85.28.35.43.74.43,1.18v80.16Z"/>
        <path class="cls-1" d="m783.52,178.07c0,1.27-.06,2.35-.16,3.25-.11.9-.27,1.62-.49,2.16-.22.55-.49.95-.82,1.21-.33.26-.69.39-1.08.39h-21.25v68.42c0,.44-.14.83-.43,1.18-.28.35-.75.63-1.41.85-.66.22-1.54.39-2.66.52s-2.5.2-4.17.2-3.05-.07-4.17-.2c-1.11-.13-2-.31-2.66-.52-.66-.22-1.13-.5-1.41-.85-.28-.35-.43-.74-.43-1.18v-68.42h-21.25c-.44,0-.81-.13-1.11-.39-.31-.26-.57-.67-.79-1.21-.22-.55-.38-1.27-.49-2.16-.11-.9-.16-1.98-.16-3.25s.05-2.43.16-3.35c.11-.92.27-1.65.49-2.2.22-.55.48-.94.79-1.18.31-.24.68-.36,1.11-.36h59.83c.39,0,.75.12,1.08.36.33.24.6.63.82,1.18.22.55.38,1.28.49,2.2.11.92.16,2.03.16,3.35Z"/>
      </g>
      <g>
        <path class="cls-2" d="m483.39,143.45c.66,1.97,1.07,3.52,1.23,4.67.16,1.15-.06,2.01-.66,2.58-.6.57-1.67.93-3.19,1.07-1.53.14-3.63.2-6.31.2s-4.96-.04-6.51-.12-2.74-.25-3.56-.49c-.82-.25-1.39-.59-1.72-1.02-.33-.44-.6-1.01-.82-1.72l-7.13-21.3h-39.81l-6.72,20.72c-.22.77-.51,1.41-.86,1.92-.36.52-.93.93-1.72,1.23-.79.3-1.91.5-3.36.61-1.45.11-3.35.16-5.69.16-2.51,0-4.48-.08-5.9-.25-1.42-.16-2.4-.56-2.95-1.19-.55-.63-.74-1.52-.57-2.66.16-1.15.57-2.67,1.23-4.59l32.68-94.03c.33-.93.71-1.68,1.15-2.25.44-.57,1.13-1.01,2.09-1.31.95-.3,2.28-.49,3.97-.57,1.69-.08,3.93-.12,6.72-.12,3.22,0,5.79.04,7.7.12,1.91.08,3.4.27,4.46.57,1.06.3,1.83.75,2.29,1.35.46.6.86,1.42,1.19,2.46l32.76,93.95Zm-48.65-77.73h-.08l-14.99,45.05h30.06l-14.99-45.05Z"/>
        <path class="cls-2" d="m542.37,147.71c-.27.93-.63,1.68-1.07,2.25-.44.57-1.15,1.01-2.13,1.31-.98.3-2.32.49-4.01.57-1.69.08-3.91.12-6.63.12-2.19,0-4.05-.01-5.61-.04-1.56-.03-2.88-.1-3.97-.2-1.09-.11-1.98-.27-2.66-.49-.68-.22-1.26-.49-1.72-.82-.46-.33-.82-.72-1.06-1.19-.25-.46-.48-1.05-.7-1.76l-31.53-93.95c-.66-1.97-1.05-3.52-1.19-4.67-.14-1.15.14-2.01.82-2.58.68-.57,1.84-.93,3.48-1.06,1.64-.14,3.93-.2,6.88-.2,2.51,0,4.48.06,5.9.16,1.42.11,2.51.3,3.28.57.76.27,1.3.68,1.6,1.23.3.55.59,1.23.86,2.05l25.8,81.74h.08l25.31-81.34c.22-.93.49-1.68.82-2.25.33-.57.89-1.02,1.68-1.35.79-.33,1.92-.55,3.4-.66,1.47-.11,3.49-.16,6.06-.16s4.46.08,5.86.25c1.39.16,2.35.56,2.87,1.19.52.63.68,1.52.49,2.66-.19,1.15-.61,2.68-1.27,4.59l-31.62,94.03Z"/>
        <path class="cls-2" d="m666.71,143.45c.66,1.97,1.07,3.52,1.23,4.67.16,1.15-.06,2.01-.66,2.58-.6.57-1.67.93-3.19,1.07-1.53.14-3.63.2-6.31.2s-4.96-.04-6.51-.12-2.74-.25-3.56-.49c-.82-.25-1.39-.59-1.72-1.02-.33-.44-.6-1.01-.82-1.72l-7.13-21.3h-39.81l-6.72,20.72c-.22.77-.5,1.41-.86,1.92-.36.52-.93.93-1.72,1.23-.79.3-1.91.5-3.36.61-1.45.11-3.35.16-5.69.16-2.51,0-4.48-.08-5.9-.25-1.42-.16-2.4-.56-2.95-1.19-.55-.63-.74-1.52-.57-2.66.16-1.15.57-2.67,1.23-4.59l32.68-94.03c.33-.93.71-1.68,1.15-2.25.44-.57,1.13-1.01,2.09-1.31.95-.3,2.28-.49,3.97-.57,1.69-.08,3.93-.12,6.72-.12,3.22,0,5.79.04,7.7.12,1.91.08,3.4.27,4.46.57,1.07.3,1.83.75,2.29,1.35.46.6.86,1.42,1.19,2.46l32.76,93.95Zm-48.65-77.73h-.08l-14.99,45.05h30.06l-14.99-45.05Z"/>
        <path class="cls-2" d="m703.16,148.53c0,.55-.18,1.04-.53,1.47-.36.44-.94.79-1.76,1.07-.82.27-1.91.49-3.28.66-1.37.16-3.11.25-5.24.25s-3.81-.08-5.2-.25c-1.39-.16-2.5-.38-3.32-.66-.82-.27-1.41-.63-1.76-1.07-.36-.44-.53-.93-.53-1.47V48.44c0-.55.18-1.04.53-1.47.35-.44.95-.79,1.8-1.07.85-.27,1.95-.49,3.32-.66,1.36-.16,3.08-.25,5.16-.25s3.88.08,5.24.25c1.36.16,2.46.38,3.28.66.82.27,1.41.63,1.76,1.07.35.44.53.93.53,1.47v100.09Z"/>
        <path class="cls-2" d="m784.49,142.47c0,1.64-.07,3.02-.21,4.14-.14,1.12-.34,2.05-.61,2.79-.27.74-.61,1.27-1.02,1.6-.41.33-.89.49-1.43.49h-48.57c-1.8,0-3.32-.53-4.55-1.6-1.23-1.07-1.84-2.8-1.84-5.2V48.44c0-.55.18-1.04.53-1.47.35-.44.94-.79,1.76-1.07.82-.27,1.93-.49,3.32-.66,1.39-.16,3.13-.25,5.2-.25s3.88.08,5.24.25c1.36.16,2.46.38,3.28.66.82.27,1.41.63,1.76,1.07.35.44.53.93.53,1.47v85.27h33.34c.55,0,1.02.15,1.43.45.41.3.75.79,1.02,1.47.27.68.48,1.58.61,2.7.14,1.12.21,2.5.21,4.14Z"/>
        <path class="cls-2" d="m452.98,243.02c0,1.09-.03,2.02-.1,2.79-.07.77-.16,1.42-.29,1.97-.13.55-.31,1.02-.53,1.41-.22.39-.57.84-1.05,1.35-.48.5-1.41,1.15-2.79,1.93-1.38.79-3.06,1.54-5.05,2.26-1.99.72-4.26,1.32-6.82,1.8-2.56.48-5.32.72-8.3.72-5.82,0-11.06-.9-15.74-2.69-4.68-1.79-8.66-4.47-11.94-8.04-3.28-3.56-5.79-8.01-7.54-13.35-1.75-5.33-2.62-11.55-2.62-18.63s.96-13.62,2.89-19.22c1.92-5.6,4.61-10.3,8.07-14.1,3.45-3.8,7.6-6.69,12.43-8.66,4.83-1.97,10.16-2.95,15.97-2.95,2.36,0,4.63.2,6.82.59,2.19.39,4.21.91,6.07,1.54,1.86.63,3.53,1.37,5.02,2.2,1.49.83,2.53,1.54,3.12,2.13.59.59.99,1.08,1.21,1.48.22.39.39.9.53,1.51.13.61.23,1.33.29,2.17.07.83.1,1.86.1,3.08,0,1.31-.04,2.43-.13,3.35-.09.92-.24,1.66-.46,2.23-.22.57-.48.98-.79,1.25-.31.26-.66.39-1.05.39-.66,0-1.49-.38-2.49-1.15-1.01-.76-2.31-1.62-3.9-2.56-1.6-.94-3.5-1.79-5.71-2.56-2.21-.76-4.84-1.15-7.9-1.15-3.37,0-6.37.69-9.02,2.07-2.65,1.38-4.9,3.35-6.76,5.9-1.86,2.56-3.27,5.65-4.23,9.28-.96,3.63-1.44,7.72-1.44,12.27,0,4.99.51,9.3,1.54,12.96,1.03,3.65,2.49,6.66,4.39,9.02,1.9,2.36,4.2,4.12,6.89,5.28,2.69,1.16,5.72,1.74,9.09,1.74,3.06,0,5.71-.36,7.94-1.08,2.23-.72,4.14-1.52,5.74-2.39,1.6-.87,2.91-1.66,3.94-2.36,1.03-.7,1.83-1.05,2.39-1.05.44,0,.79.09,1.05.26.26.18.48.52.66,1.05.17.52.31,1.26.39,2.2.09.94.13,2.2.13,3.77Z"/>
        <path class="cls-2" d="m528.35,253.64c0,.48-.09.89-.26,1.21-.18.33-.59.6-1.25.82-.66.22-1.62.37-2.89.46-1.27.09-3,.13-5.18.13-1.84,0-3.3-.04-4.4-.13-1.09-.09-1.96-.25-2.59-.49-.63-.24-1.08-.55-1.35-.92-.26-.37-.48-.82-.66-1.34l-7.61-18.96c-.92-2.14-1.82-4.04-2.69-5.71-.88-1.66-1.85-3.05-2.92-4.17-1.07-1.12-2.31-1.96-3.71-2.53-1.4-.57-3.02-.85-4.85-.85h-5.38v32.34c0,.44-.14.83-.43,1.18-.29.35-.75.63-1.41.85-.66.22-1.53.39-2.62.52-1.09.13-2.49.2-4.2.2s-3.05-.07-4.17-.2-2-.31-2.66-.52c-.66-.22-1.12-.5-1.38-.85-.26-.35-.39-.74-.39-1.18v-77.08c0-1.92.49-3.31,1.48-4.17.98-.85,2.2-1.28,3.64-1.28h21.98c2.23,0,4.07.04,5.51.13,1.44.09,2.76.2,3.94.33,3.41.48,6.48,1.31,9.22,2.49,2.73,1.18,5.05,2.72,6.95,4.62s3.36,4.16,4.36,6.76c1.01,2.6,1.51,5.59,1.51,8.95,0,2.84-.36,5.43-1.08,7.77-.72,2.34-1.78,4.43-3.18,6.26-1.4,1.84-3.13,3.43-5.18,4.79-2.06,1.36-4.39,2.45-7.02,3.28,1.27.61,2.46,1.36,3.57,2.23,1.12.88,2.16,1.94,3.15,3.18.98,1.25,1.91,2.67,2.79,4.26.87,1.6,1.73,3.4,2.56,5.41l7.15,16.73c.66,1.66,1.09,2.88,1.31,3.64.22.77.33,1.37.33,1.8Zm-22.24-57.59c0-2.8-.63-5.16-1.9-7.08-1.27-1.92-3.35-3.28-6.23-4.07-.88-.22-1.87-.39-2.98-.53-1.12-.13-2.66-.2-4.62-.2h-7.74v24.07h8.79c2.45,0,4.59-.3,6.43-.89,1.84-.59,3.37-1.42,4.59-2.49,1.22-1.07,2.14-2.35,2.76-3.84.61-1.49.92-3.15.92-4.99Z"/>
        <path class="cls-2" d="m591.32,249.12c0,1.27-.06,2.33-.16,3.18-.11.85-.27,1.54-.49,2.07-.22.52-.49.91-.82,1.15-.33.24-.69.36-1.08.36h-42.64c-1.44,0-2.66-.43-3.64-1.28-.98-.85-1.48-2.24-1.48-4.17v-73.99c0-1.92.49-3.31,1.48-4.17.98-.85,2.2-1.28,3.64-1.28h42.38c.39,0,.74.11,1.05.33.31.22.57.6.79,1.15.22.55.38,1.25.49,2.1.11.85.16,1.93.16,3.25,0,1.22-.06,2.26-.16,3.12-.11.85-.27,1.54-.49,2.07-.22.52-.48.91-.79,1.15-.31.24-.66.36-1.05.36h-30.31v20.73h25.65c.39,0,.75.12,1.08.36.33.24.6.61.82,1.12.22.5.38,1.18.49,2.03.11.85.16,1.89.16,3.12s-.06,2.32-.16,3.15c-.11.83-.27,1.5-.49,2-.22.5-.49.86-.82,1.08-.33.22-.69.33-1.08.33h-25.65v23.94h30.57c.39,0,.75.12,1.08.36.33.24.6.62.82,1.15.22.52.38,1.21.49,2.07.11.85.16,1.91.16,3.18Z"/>
        <path class="cls-2" d="m677.06,212.19c0,7.78-1.02,14.44-3.05,19.97-2.03,5.53-4.95,10.05-8.76,13.55-3.8,3.5-8.43,6.07-13.87,7.71-5.44,1.64-11.93,2.46-19.45,2.46h-20.27c-1.44,0-2.66-.43-3.64-1.28-.98-.85-1.48-2.24-1.48-4.17v-73.99c0-1.92.49-3.31,1.48-4.17.98-.85,2.2-1.28,3.64-1.28h21.78c7.57,0,13.98.89,19.25,2.66,5.27,1.77,9.71,4.39,13.32,7.87,3.61,3.48,6.35,7.77,8.23,12.89,1.88,5.12,2.82,11.04,2.82,17.78Zm-17.84.59c0-4.02-.47-7.76-1.41-11.22-.94-3.45-2.45-6.45-4.53-8.99-2.08-2.54-4.75-4.52-8-5.94-3.26-1.42-7.53-2.13-12.82-2.13h-8.72v57.73h8.99c4.72,0,8.7-.61,11.94-1.84,3.24-1.22,5.94-3.07,8.1-5.54,2.16-2.47,3.78-5.54,4.85-9.22,1.07-3.67,1.61-7.96,1.61-12.86Z"/>
        <path class="cls-2" d="m708.55,253.51c0,.44-.14.83-.43,1.18-.28.35-.75.63-1.41.85-.66.22-1.53.39-2.62.52-1.09.13-2.49.2-4.2.2s-3.05-.07-4.17-.2c-1.11-.13-2-.31-2.66-.52-.66-.22-1.13-.5-1.41-.85-.28-.35-.43-.74-.43-1.18v-80.16c0-.44.14-.83.43-1.18.28-.35.76-.63,1.44-.85.68-.22,1.56-.39,2.66-.52,1.09-.13,2.47-.2,4.13-.2s3.1.07,4.2.2c1.09.13,1.97.31,2.62.52.66.22,1.13.5,1.41.85.28.35.43.74.43,1.18v80.16Z"/>
        <path class="cls-2" d="m783.52,178.07c0,1.27-.06,2.35-.16,3.25-.11.9-.27,1.62-.49,2.16-.22.55-.49.95-.82,1.21-.33.26-.69.39-1.08.39h-21.25v68.42c0,.44-.14.83-.43,1.18-.28.35-.75.63-1.41.85-.66.22-1.54.39-2.66.52s-2.5.2-4.17.2-3.05-.07-4.17-.2c-1.11-.13-2-.31-2.66-.52-.66-.22-1.13-.5-1.41-.85-.28-.35-.43-.74-.43-1.18v-68.42h-21.25c-.44,0-.81-.13-1.11-.39-.31-.26-.57-.67-.79-1.21-.22-.55-.38-1.27-.49-2.16-.11-.9-.16-1.98-.16-3.25s.05-2.43.16-3.35c.11-.92.27-1.65.49-2.2.22-.55.48-.94.79-1.18.31-.24.68-.36,1.11-.36h59.83c.39,0,.75.12,1.08.36.33.24.6.63.82,1.18.22.55.38,1.28.49,2.2.11.92.16,2.03.16,3.35Z"/>
      </g>
    </g>
  </g>
</svg>