<?xml version="1.0" encoding="UTF-8"?>
<svg id="Layer_2" data-name="Layer 2" xmlns="http://www.w3.org/2000/svg" xmlns:xlink="http://www.w3.org/1999/xlink" viewBox="0 0 763.57 255.57">
  <defs>
    <style>
      .cls-1 {
        stroke: url(#Orange_Yellow-2);
      }

      .cls-1, .cls-2, .cls-3 {
        fill: #fff;
        stroke-miterlimit: 10;
      }

      .cls-1, .cls-3 {
        stroke-width: 7px;
      }

      .cls-4 {
        fill: url(#Orange_Yellow-5);
      }

      .cls-4, .cls-5, .cls-6, .cls-7, .cls-8, .cls-9, .cls-10, .cls-11, .cls-12, .cls-13, .cls-14, .cls-15, .cls-16, .cls-17, .cls-18, .cls-19 {
        stroke-width: 0px;
      }

      .cls-5 {
        fill: url(#Orange_Yellow-17);
      }

      .cls-6 {
        fill: #02487e;
      }

      .cls-7 {
        fill: url(#Orange_Yellow-11);
      }

      .cls-8 {
        fill: url(#Orange_Yellow-12);
      }

      .cls-9 {
        fill: url(#Orange_Yellow-6);
      }

      .cls-10 {
        fill: url(#Orange_Yellow-15);
      }

      .cls-11 {
        fill: url(#Orange_Yellow-10);
      }

      .cls-12 {
        fill: url(#Orange_Yellow-7);
      }

      .cls-2 {
        stroke: url(#Orange_Yellow);
        stroke-width: 7.27px;
      }

      .cls-13 {
        fill: #284766;
      }

      .cls-14 {
        fill: url(#Orange_Yellow-4);
      }

      .cls-15 {
        fill: url(#Orange_Yellow-14);
      }

      .cls-16 {
        fill: url(#Orange_Yellow-8);
      }

      .cls-17 {
        fill: url(#Orange_Yellow-9);
      }

      .cls-3 {
        stroke: url(#Orange_Yellow-3);
      }

      .cls-18 {
        fill: url(#Orange_Yellow-13);
      }

      .cls-19 {
        fill: url(#Orange_Yellow-16);
      }
    </style>
    <linearGradient id="Orange_Yellow" data-name="Orange, Yellow" x1="83.44" y1="176.62" x2="193.31" y2="176.62" gradientTransform="translate(-8.41 5.86) rotate(.01) scale(1.04) skewX(.03)" gradientUnits="userSpaceOnUse">
      <stop offset="0" stop-color="#fff33b"/>
      <stop offset=".04" stop-color="#fee62d"/>
      <stop offset=".12" stop-color="#fdd51b"/>
      <stop offset=".2" stop-color="#fdca0f"/>
      <stop offset=".28" stop-color="#fdc70c"/>
      <stop offset=".67" stop-color="#f3903f"/>
      <stop offset=".89" stop-color="#ed683c"/>
      <stop offset="1" stop-color="#e93e3a"/>
    </linearGradient>
    <linearGradient id="Orange_Yellow-2" data-name="Orange, Yellow" x1="59.7" y1="178.59" x2="169.22" y2="178.59" gradientTransform="matrix(1,0,0,1,0,0)" xlink:href="#Orange_Yellow"/>
    <linearGradient id="Orange_Yellow-3" data-name="Orange, Yellow" x1="40.88" y1="172.63" x2="147.79" y2="172.63" gradientTransform="matrix(1,0,0,1,0,0)" xlink:href="#Orange_Yellow"/>
    <linearGradient id="Orange_Yellow-4" data-name="Orange, Yellow" x1="-25.22" y1="145.46" x2="307.12" y2="145.46" gradientTransform="matrix(1,0,0,1,0,0)" xlink:href="#Orange_Yellow"/>
    <linearGradient id="Orange_Yellow-5" data-name="Orange, Yellow" x1="-25.22" y1="118.05" x2="307.12" y2="118.05" gradientTransform="matrix(1,0,0,1,0,0)" xlink:href="#Orange_Yellow"/>
    <linearGradient id="Orange_Yellow-6" data-name="Orange, Yellow" x1="-25.22" y1="87.05" x2="307.12" y2="87.05" gradientTransform="matrix(1,0,0,1,0,0)" xlink:href="#Orange_Yellow"/>
    <linearGradient id="Orange_Yellow-7" data-name="Orange, Yellow" x1="-25.22" y1="59.89" x2="307.12" y2="59.89" gradientTransform="matrix(1,0,0,1,0,0)" xlink:href="#Orange_Yellow"/>
    <linearGradient id="Orange_Yellow-8" data-name="Orange, Yellow" x1="-25.22" y1="38.08" x2="307.12" y2="38.08" gradientTransform="matrix(1,0,0,1,0,0)" xlink:href="#Orange_Yellow"/>
    <linearGradient id="Orange_Yellow-9" data-name="Orange, Yellow" x1="-25.22" y1="22.91" x2="307.12" y2="22.91" gradientTransform="matrix(1,0,0,1,0,0)" xlink:href="#Orange_Yellow"/>
    <linearGradient id="Orange_Yellow-10" data-name="Orange, Yellow" x1="-25.22" y1="15.24" x2="307.12" y2="15.24" gradientTransform="matrix(1,0,0,1,0,0)" xlink:href="#Orange_Yellow"/>
    <linearGradient id="Orange_Yellow-11" data-name="Orange, Yellow" x1="-25.22" y1="13.71" x2="307.12" y2="13.71" gradientTransform="matrix(1,0,0,1,0,0)" xlink:href="#Orange_Yellow"/>
    <linearGradient id="Orange_Yellow-12" data-name="Orange, Yellow" x1="-25.22" y1="21.61" x2="307.12" y2="21.61" gradientTransform="matrix(1,0,0,1,0,0)" xlink:href="#Orange_Yellow"/>
    <linearGradient id="Orange_Yellow-13" data-name="Orange, Yellow" x1="-25.22" y1="37.31" x2="307.12" y2="37.31" gradientTransform="matrix(1,0,0,1,0,0)" xlink:href="#Orange_Yellow"/>
    <linearGradient id="Orange_Yellow-14" data-name="Orange, Yellow" x1="-25.22" y1="59.83" x2="307.12" y2="59.83" gradientTransform="matrix(1,0,0,1,0,0)" xlink:href="#Orange_Yellow"/>
    <linearGradient id="Orange_Yellow-15" data-name="Orange, Yellow" x1="-25.22" y1="87.85" x2="307.12" y2="87.85" gradientTransform="matrix(1,0,0,1,0,0)" xlink:href="#Orange_Yellow"/>
    <linearGradient id="Orange_Yellow-16" data-name="Orange, Yellow" x1="-25.22" y1="119.75" x2="307.12" y2="119.75" gradientTransform="matrix(1,0,0,1,0,0)" xlink:href="#Orange_Yellow"/>
    <linearGradient id="Orange_Yellow-17" data-name="Orange, Yellow" x1="-25.22" y1="146.63" x2="307.12" y2="146.63" gradientTransform="matrix(1,0,0,1,0,0)" xlink:href="#Orange_Yellow"/>
  </defs>
  <g id="Layer_1-2" data-name="Layer 1">
    <path class="cls-2" d="m156.73,127.53l30.46,49.96s-74.61,28.89-79.45,69.31l-25-24.6s21.82-72.02,73.99-94.66Z"/>
    <path class="cls-1" d="m134.8,119.47l29.27,48.23s-71.72,27.92-76.38,66.94l-24.02-23.75s20.99-69.54,71.14-91.42Z"/>
    <path class="cls-3" d="m110.55,112.36l31.98,46.47s-70,31.98-72.42,71.21l-25.35-22.33s16.97-70.63,65.78-95.35Z"/>
    <path class="cls-13" d="m169.91,113.8h23.33c-13.85-22.78-38.91-38.03-67.47-38.03-43.51,0-78.9,35.39-78.9,78.9s35.39,78.9,78.9,78.9c33.15,0,61.59-20.55,73.25-49.58h23.3c-12.58,41.38-51.1,71.58-96.55,71.58-55.64,0-100.9-45.26-100.9-100.9S70.13,53.77,125.77,53.77c41.1,0,76.54,24.7,92.24,60.03h21.93l-14.5,25.13-13.32,23.07-7.19,12.45-35.02-60.65Z"/>
    <g>
      <path class="cls-14" d="m256.21,153.66c.27-3.84.35-7.7.24-11.56l49.06-4.84c.81,5.43,1.34,10.9,1.61,16.4h-50.91Z"/>
      <path class="cls-4" d="m256.21,137.13c-.55-7.72-1.88-15.43-3.99-22.98l42.76-15.19c4.14,10.05,7.28,20.57,9.35,31.34l-48.12,6.83Z"/>
      <path class="cls-9" d="m250.75,109.33c-2.44-7.47-5.66-14.75-9.6-21.69l34.6-22.85c6.35,8.64,11.87,17.96,16.43,27.8l-41.43,16.75Z"/>
      <path class="cls-12" d="m238.52,83.22c-4.25-6.79-9.2-13.2-14.78-19.09l25.5-27.56c8.13,6.79,15.62,14.41,22.32,22.76l-33.04,23.9Z"/>
      <path class="cls-16" d="m220.07,60.41c-5.84-5.67-12.28-10.79-19.21-15.24l16.29-29.42c9.41,4.59,18.4,10.15,26.79,16.57l-23.86,28.09Z"/>
      <path class="cls-17" d="m196.34,42.41c-7.13-4.16-14.73-7.63-22.64-10.31l7.71-28.7c10.12,2.16,20.07,5.35,29.64,9.53l-14.71,29.48Z"/>
      <path class="cls-11" d="m168.57,30.48c-8.05-2.35-16.39-3.89-24.87-4.61l.54-25.79c10.19-.32,20.48.36,30.65,2.08l-6.32,28.33Z"/>
      <path class="cls-7" d="m138.22,25.53c-8.53-.36-17.13.12-25.64,1.47l-4.76-21.36c9.71-2.72,19.74-4.46,29.88-5.21l.52,25.1Z"/>
      <path class="cls-8" d="m107.12,27.98c-8.47,1.72-16.82,4.3-24.88,7.72l-8.02-16.08c8.65-4.92,17.85-8.99,27.41-12.11l5.5,20.47Z"/>
      <path class="cls-18" d="m77.1,38.02c-7.93,3.77-15.52,8.36-22.63,13.7l-9.1-10.71c7.12-6.75,14.95-12.83,23.36-18.1l8.37,15.12Z"/>
      <path class="cls-15" d="m49.96,55.24c-6.9,5.65-13.27,12.01-18.98,18.99l-8.21-5.94c5.23-8.15,11.31-15.82,18.12-22.86l9.07,9.81Z"/>
      <path class="cls-10" d="m27.4,78.8c-5.42,7.23-10.15,15.05-14.07,23.31l-5.77-2.33c3.08-9.05,7.09-17.84,11.96-26.19l7.88,5.21Z"/>
      <path class="cls-19" d="m10.92,107.48c-3.57,8.44-6.31,17.3-8.14,26.39l-2.28-.32c.79-9.4,2.53-18.77,5.21-27.92l5.21,1.85Z"/>
      <path class="cls-5" d="m1.72,139.76c-.72,4.59-1.22,9.23-1.49,13.9-.27-4.67-.31-9.36-.12-14.06l1.6.16Z"/>
    </g>
    <g>
      <path class="cls-6" d="m401.7,133.29c-6.34,2.53-12.99,3.8-19.95,3.8-7.33,0-14.12-1.31-20.36-3.94-6.24-2.62-11.65-6.22-16.22-10.79-4.57-4.57-8.14-9.93-10.72-16.08-2.58-6.15-3.87-12.8-3.87-19.95s1.29-13.8,3.87-19.95c2.58-6.15,6.15-11.51,10.72-16.08s9.98-8.17,16.22-10.79c6.24-2.62,13.03-3.94,20.36-3.94s14.12,1.31,20.36,3.94c6.24,2.63,11.65,6.22,16.22,10.79,4.57,4.57,8.14,9.93,10.72,16.08,2.58,6.16,3.87,12.81,3.87,19.95s-1.36,14.16-4.07,20.5c-2.71,6.33-6.52,11.81-11.4,16.42l7.74,11.67-15.47,10.32-8.01-11.95Zm-21.85-32.71l15.47-10.45,10.32,15.47c1.9-2.53,3.39-5.43,4.48-8.69s1.63-6.79,1.63-10.59c0-4.61-.77-8.8-2.31-12.56-1.54-3.75-3.66-6.99-6.38-9.71s-5.91-4.79-9.57-6.24c-3.66-1.45-7.58-2.17-11.74-2.17s-8.19.73-11.81,2.17c-3.62,1.45-6.79,3.53-9.5,6.24s-4.84,5.95-6.38,9.71c-1.54,3.76-2.31,7.94-2.31,12.56s.77,8.8,2.31,12.56c1.54,3.76,3.67,6.99,6.38,9.71s5.88,4.8,9.5,6.24c3.62,1.45,7.55,2.17,11.81,2.17,2.8,0,5.57-.36,8.28-1.09l-10.18-15.34Z"/>
      <path class="cls-6" d="m484.23,137.1c-5.88,0-11.22-.93-16.02-2.78-4.8-1.85-8.87-4.59-12.22-8.21-3.35-3.62-5.93-8.03-7.74-13.23-1.81-5.2-2.71-11.15-2.71-17.85v-57.28h21.17v58.64c0,5.97,1.49,10.91,4.48,14.8,2.99,3.89,7.33,5.84,13.03,5.84s10.04-1.95,13.03-5.84c2.99-3.89,4.48-8.82,4.48-14.8v-58.64h21.17v57.28c0,6.16-.91,11.81-2.71,16.97-1.81,5.16-4.39,9.59-7.74,13.3-3.35,3.71-7.42,6.61-12.22,8.69-4.8,2.08-10.14,3.12-16.02,3.12Z"/>
      <path class="cls-6" d="m540.29,37.74h21.17v97.19h-21.17V37.74Z"/>
      <path class="cls-6" d="m665.03,119.18c-9.96,11.95-22.94,17.92-38.96,17.92-7.24,0-13.98-1.31-20.22-3.94-6.24-2.62-11.65-6.22-16.22-10.79-4.57-4.57-8.17-9.93-10.79-16.08-2.63-6.15-3.94-12.8-3.94-19.95s1.31-13.8,3.94-19.95c2.62-6.15,6.22-11.51,10.79-16.08s9.98-8.17,16.22-10.79c6.24-2.62,12.98-3.94,20.22-3.94,7.96,0,14.86,1.36,20.7,4.07s11.15,6.65,15.95,11.81l-14.79,14.39c-2.54-2.89-5.57-5.31-9.09-7.26-3.53-1.95-7.74-2.92-12.62-2.92-4.25,0-8.21.73-11.88,2.17-3.67,1.45-6.85,3.53-9.57,6.24s-4.84,5.95-6.38,9.71c-1.54,3.76-2.31,7.94-2.31,12.56s.77,8.8,2.31,12.56c1.54,3.76,3.67,6.99,6.38,9.71s5.9,4.8,9.57,6.24c3.67,1.45,7.62,2.17,11.88,2.17,5.16,0,9.64-1.04,13.44-3.12,3.8-2.08,7.24-5.07,10.32-8.96l15.07,14.25Z"/>
      <path class="cls-6" d="m679.69,37.74h21.17v37.46h1.36l32.03-37.46h25.11v1.36l-34.61,39.5,38.82,54.97v1.36h-25.79l-27.69-39.5-9.23,10.72v28.78h-21.17V37.74Z"/>
      <path class="cls-6" d="m411.01,227.95c-8.94,10.73-20.6,16.09-34.99,16.09-6.5,0-12.56-1.18-18.17-3.54-5.61-2.36-10.46-5.59-14.57-9.69-4.11-4.1-7.34-8.92-9.69-14.45-2.36-5.53-3.54-11.5-3.54-17.92s1.18-12.39,3.54-17.92c2.36-5.53,5.59-10.34,9.69-14.45,4.1-4.1,8.96-7.33,14.57-9.69,5.61-2.36,11.66-3.54,18.17-3.54,7.15,0,13.35,1.22,18.59,3.66,5.24,2.44,10.02,5.97,14.33,10.61l-13.29,12.92c-2.28-2.6-5-4.77-8.17-6.52-3.17-1.75-6.95-2.62-11.34-2.62-3.82,0-7.38.65-10.67,1.95-3.29,1.3-6.16,3.17-8.59,5.61-2.44,2.44-4.35,5.34-5.73,8.72-1.38,3.37-2.07,7.13-2.07,11.28s.69,7.91,2.07,11.28c1.38,3.37,3.29,6.28,5.73,8.72,2.44,2.44,5.3,4.31,8.59,5.61,3.29,1.3,6.85,1.95,10.67,1.95,4.63,0,8.66-.93,12.07-2.8,3.41-1.87,6.5-4.55,9.27-8.05l13.53,12.8Z"/>
      <path class="cls-6" d="m424.18,154.81h32.92c4.71,0,8.94.71,12.68,2.13,3.74,1.42,6.89,3.39,9.45,5.91,2.56,2.52,4.51,5.51,5.85,8.96,1.34,3.46,2.01,7.21,2.01,11.28,0,2.85-.47,5.49-1.4,7.92-.94,2.44-2.19,4.69-3.78,6.77s-3.43,3.9-5.55,5.49c-2.11,1.58-4.39,2.91-6.83,3.96v1.1l22.8,32.55v1.22h-21.7l-22.07-31.45h-5.36v31.45h-19.02v-87.29Zm32.92,38.28c3.41,0,6.1-.99,8.05-2.99,1.95-1.99,2.93-4.45,2.93-7.38s-.91-5.38-2.74-7.38c-1.83-1.99-4.57-2.99-8.23-2.99h-13.9v20.72h13.9Z"/>
      <path class="cls-6" d="m521.34,172.85v16.58h34.62v18.04h-34.62v16.58h38.52v18.04h-57.54v-87.29h57.54v18.04h-38.52Z"/>
      <path class="cls-6" d="m574.98,154.81h30.84c6.99,0,13.29,1.06,18.9,3.17,5.61,2.12,10.36,5.08,14.26,8.9,3.9,3.82,6.89,8.41,8.96,13.78s3.11,11.3,3.11,17.8-1.04,12.43-3.11,17.8-5.06,9.96-8.96,13.78c-3.9,3.82-8.66,6.79-14.26,8.9-5.61,2.11-11.91,3.17-18.9,3.17h-30.84v-87.29Zm29.87,69.24c4.71,0,8.78-.63,12.19-1.89,3.41-1.26,6.24-3.03,8.47-5.3,2.23-2.27,3.88-4.98,4.94-8.11,1.06-3.13,1.58-6.56,1.58-10.3s-.53-7.17-1.58-10.3c-1.06-3.13-2.7-5.83-4.94-8.11-2.24-2.27-5.06-4.04-8.47-5.3-3.41-1.26-7.48-1.89-12.19-1.89h-10.85v51.2h10.85Z"/>
      <path class="cls-6" d="m664.33,154.81h19.02v87.29h-19.02v-87.29Z"/>
      <path class="cls-6" d="m719.44,242.09v-69.25h-24.38v-18.04h67.78v18.04h-24.38v69.25h-19.02Z"/>
    </g>
    <path class="cls-6" d="m107.54,166l-6.65-6.65c.24,2.1-.24,4.27-1.85,6.37l4.39,4.39-2.02,2.02-4.35-4.35c-4.51,3.71-10.4,3.06-15.72-1.94-.12,6.41-.81,13.94-1.57,21.48l-3.87-3.87c.64-6.93,1.21-13.38,1.45-21.2l2.5-2.5,2.22,2.22c4.35,4.35,8.5,4.88,11.57,2.38l-9.19-9.19,2.02-2.01,9.07,9.07c1.77-2.9.81-6.21-2.7-9.71l-2.86-2.86,2.62-2.62,16.97,16.97-2.02,2.01Z"/>
  </g>
</svg>