<?xml version="1.0" encoding="UTF-8"?>
<svg id="Layer_2" data-name="Layer 2" xmlns="http://www.w3.org/2000/svg" viewBox="0 0 280.31 134.97">
  <defs>
    <style>
      .cls-1 {
        fill: #ff8f73;
      }

      .cls-1, .cls-2, .cls-3 {
        stroke-width: 0px;
      }

      .cls-2 {
        fill: #fb8e6f;
      }

      .cls-3 {
        fill: #2c364c;
      }
    </style>
  </defs>
  <g id="Layer_1-2" data-name="Layer 1">
    <g>
      <path class="cls-3" d="m24.69,70.19c-5.99,0-11.15-1.6-15.49-4.8-4.34-3.2-7.41-7.8-9.2-13.78l13.2-5.21c.78,3.05,2.06,5.57,3.86,7.54,1.8,1.98,4.34,2.96,7.63,2.96,1.08,0,2.11-.12,3.1-.36.99-.24,1.85-.61,2.6-1.12.75-.51,1.36-1.15,1.84-1.93.48-.78.72-1.68.72-2.69s-.19-1.96-.58-2.83c-.39-.87-1.03-1.68-1.93-2.42-.9-.75-2.1-1.5-3.59-2.24-1.5-.75-3.38-1.54-5.66-2.38l-3.95-1.44c-1.68-.6-3.4-1.42-5.16-2.47-1.77-1.05-3.37-2.32-4.8-3.82-1.44-1.5-2.6-3.22-3.5-5.16-.9-1.94-1.35-4.11-1.35-6.51,0-2.57.51-5,1.53-7.27,1.02-2.27,2.45-4.23,4.31-5.88,1.85-1.65,4.1-2.95,6.73-3.91,2.63-.96,5.54-1.44,8.71-1.44,3.35,0,6.22.44,8.62,1.3,2.39.87,4.43,1.98,6.11,3.32,1.68,1.35,3.01,2.86,4,4.53.99,1.68,1.75,3.29,2.29,4.85l-12.12,5.12c-.66-1.92-1.71-3.46-3.14-4.62-1.44-1.17-3.29-1.75-5.57-1.75-2.39,0-4.3.49-5.7,1.48-1.41.99-2.11,2.26-2.11,3.82s.72,3.05,2.15,4.31c1.44,1.26,3.98,2.51,7.63,3.77l3.95,1.35c5.45,1.86,9.67,4.34,12.66,7.45,2.99,3.11,4.49,7.3,4.49,12.57,0,3.35-.67,6.26-2.02,8.71-1.35,2.46-3.08,4.49-5.21,6.1-2.13,1.62-4.52,2.83-7.18,3.64-2.66.81-5.28,1.21-7.86,1.21Z"/>
      <path class="cls-3" d="m58,24.76h12.57v5.57h.9c1.44-2.21,3.28-3.94,5.52-5.16,2.24-1.23,4.89-1.84,7.95-1.84,3.35,0,6.13.79,8.35,2.38,2.21,1.59,3.77,3.43,4.67,5.52,1.31-2.09,3.2-3.94,5.66-5.52,2.45-1.59,5.54-2.38,9.25-2.38,2.63,0,4.94.44,6.91,1.3,1.97.87,3.61,2.08,4.89,3.64,1.29,1.56,2.26,3.41,2.92,5.57.66,2.15.99,4.52.99,7.09v27.83h-13.47v-25.23c0-2.27-.52-4.12-1.57-5.52-1.05-1.41-2.59-2.11-4.62-2.11-2.93,0-5.15,1.18-6.64,3.55-1.5,2.37-2.24,5.52-2.24,9.47v19.84h-13.47v-25.23c0-2.27-.55-4.12-1.66-5.52-1.11-1.41-2.83-2.11-5.16-2.11-2.75,0-4.82,1.18-6.2,3.55-1.38,2.37-2.06,5.52-2.06,9.47v19.84h-13.47V24.76Z"/>
      <path class="cls-3" d="m207.59,25.48h12.57v5.57h.9c1.2-1.92,2.9-3.53,5.12-4.85,2.21-1.32,4.67-1.98,7.36-1.98,1.14,0,2.05.03,2.74.09.69.06,1.33.24,1.93.54v13.02c-.72-.36-1.54-.66-2.47-.9-.93-.24-2.05-.36-3.37-.36-3.59,0-6.38,1.12-8.35,3.37-1.98,2.24-2.96,5.34-2.96,9.29v20.2h-13.47V25.48Zm43.28,10.6h-7.72v-11.31h7.72v-13.47h13.47v13.47h10.87v11.31h-10.87v15.33c0,.99.12,1.91.36,2.74.24.84.66,1.53,1.26,2.09.9.81,2.07,1.21,3.5,1.21.96,0,1.76-.12,2.42-.36.66-.24,1.23-.54,1.71-.9l3.77,11.67c-1.56.72-3.23,1.29-5.03,1.71-1.8.42-3.71.63-5.75.63-4.73,0-8.47-1.41-11.22-4.22-1.44-1.47-2.54-3.29-3.32-5.46-.78-2.17-1.17-4.57-1.17-7.2v-17.24Z"/>
      <path class="cls-2" d="m50.97,124.96c-5.56,6.67-12.81,10-21.75,10-4.04,0-7.81-.73-11.29-2.2s-6.51-3.47-9.06-6.02c-2.55-2.55-4.56-5.54-6.03-8.98-1.47-3.44-2.2-7.15-2.2-11.14s.73-7.71,2.2-11.14c1.46-3.44,3.47-6.43,6.03-8.98,2.55-2.55,5.57-4.56,9.06-6.03,3.49-1.46,7.25-2.2,11.29-2.2,4.45,0,8.3.76,11.56,2.27,3.26,1.52,6.23,3.71,8.91,6.59l-8.26,8.03c-1.42-1.62-3.11-2.97-5.08-4.05-1.97-1.09-4.32-1.63-7.05-1.63-2.38,0-4.59.41-6.63,1.21-2.05.81-3.83,1.97-5.34,3.49-1.52,1.52-2.7,3.32-3.56,5.42-.86,2.1-1.29,4.43-1.29,7.01s.43,4.91,1.29,7.01c.86,2.1,2.05,3.9,3.56,5.42,1.52,1.52,3.3,2.68,5.34,3.49,2.05.81,4.26,1.21,6.63,1.21,2.88,0,5.38-.58,7.5-1.74,2.12-1.16,4.04-2.83,5.76-5l8.41,7.96Z"/>
      <path class="cls-2" d="m61.28,79.49h20.46c2.93,0,5.56.44,7.88,1.33,2.32.88,4.28,2.11,5.87,3.68,1.59,1.57,2.8,3.42,3.64,5.57.83,2.15,1.25,4.49,1.25,7.01,0,1.77-.29,3.41-.87,4.93-.58,1.52-1.36,2.92-2.35,4.21-.99,1.29-2.13,2.42-3.45,3.41-1.31.99-2.73,1.81-4.24,2.46v.68l14.17,20.24v.76h-13.49l-13.72-19.55h-3.33v19.55h-11.82v-54.26Zm20.46,23.8c2.12,0,3.79-.62,5-1.86s1.82-2.77,1.82-4.59-.57-3.35-1.71-4.58c-1.14-1.24-2.84-1.86-5.12-1.86h-8.64v12.88h8.64Z"/>
      <path class="cls-2" d="m123.81,90.71v10.31h21.52v11.22h-21.52v10.31h23.95v11.22h-35.77v-54.26h35.77v11.22h-23.95Z"/>
      <path class="cls-2" d="m159.27,79.49h19.17c4.34,0,8.26.66,11.75,1.97,3.49,1.31,6.44,3.16,8.87,5.53,2.42,2.38,4.28,5.23,5.57,8.56s1.93,7.02,1.93,11.07-.64,7.73-1.93,11.06c-1.29,3.33-3.15,6.19-5.57,8.56-2.43,2.38-5.38,4.22-8.87,5.53-3.49,1.31-7.4,1.97-11.75,1.97h-19.17v-54.26Zm18.57,43.05c2.93,0,5.46-.39,7.58-1.17,2.12-.78,3.88-1.88,5.27-3.3,1.39-1.41,2.41-3.09,3.07-5.04.66-1.95.99-4.08.99-6.4s-.33-4.46-.99-6.4c-.66-1.94-1.68-3.62-3.07-5.04-1.39-1.41-3.15-2.51-5.27-3.3-2.12-.78-4.65-1.17-7.58-1.17h-6.75v31.83h6.75Z"/>
      <path class="cls-2" d="m216.95,79.49h11.82v54.26h-11.82v-54.26Z"/>
      <path class="cls-2" d="m253.33,133.76v-43.05h-15.16v-11.22h42.14v11.22h-15.16v43.05h-11.82Z"/>
      <g>
        <path class="cls-3" d="m142.8,22.34c2.16,0,4.32-.02,6.48,0,8.26.1,14.44,4.96,16.38,12.95.28,1.16.49,1.95,1.98,1.93,1.41-.02,1.75-.63,2.05-1.86,1.95-8.11,8.23-13.01,16.55-13.03,4.7-.01,9.41.06,14.11-.03,1.53-.03,1.96.42,1.93,1.94-.1,4.85.02,9.71-.05,14.57-.15,10.59-9.19,18.04-19.65,16.15-1.23-.22-2.12-.06-3.2.59-7.57,4.54-15.18,4.43-22.71-.15-.96-.58-1.71-.97-2.94-.67-10.72,2.58-20.39-4.85-20.63-15.86-.11-4.93.04-9.87-.05-14.8-.03-1.52.54-1.79,1.89-1.74,2.62.1,5.24.03,7.86.03Zm55.32,11.89c0-2.41-.04-4.33.01-6.26.03-1.03-.23-1.58-1.4-1.55-4.15.09-8.33-.13-12.45.24-6.27.58-10.95,6.09-10.86,12.29.09,6.27,5.09,11.6,11.39,12.15,6.07.53,11.67-3.7,13-9.77.55-2.52.17-5.06.31-7.1Zm-53.29-7.72s0-.02,0-.02c-2,0-4.01.05-6.01-.02-1.19-.04-1.62.39-1.6,1.6.06,3.78-.11,7.56.07,11.33.32,6.76,6.06,11.96,12.73,11.73,6.56-.22,11.89-5.76,11.91-12.38.01-6.54-5.3-11.97-12-12.23-1.69-.07-3.39,0-5.09,0Zm11.6,27.38c7.81,3.15,15.16,3.17,22.96.22-5.67-2.88-8.99-7.13-9.93-13.11-.21-1.33-1.29-.77-2.03-.86-.84-.11-1.42.08-1.59,1.14-.89,5.65-4.07,9.69-9.41,12.61Z"/>
        <path class="cls-3" d="m161.58,20.36c.56-2.82,1.92-4.62,3.62-6.24.36-.34,1.06-.58.85-1.23-.26-.8-1.04-.5-1.59-.48-3.89.15-7.38,1.42-10.42,3.89-.71.58-1.31,1.3-2.22,1.58-1.3-1.21,1.19-1.85.32-3.13-1.68.83-3.32,1.91-4.41,3.38-1.96,2.63-4.45,2.84-7.47,2.28,2.53-4.22,6.23-7.12,10.46-10.06-1.7-.56-2.98-.99-4.44-1.47,4.72-2.29,9.8-2.13,14.82-3.1-1.08-2.75-3.42-4.15-5.88-5.53,2.41,0,4.68.29,6.86-.06,4.66-.74,8.79.76,12.91,2.5,1.2.51,2.45,1.1,3.37,1.98,4.73,4.49,10,8.39,14.5,13.12.68.71,1.22,1.57,2.08,2.69-2.74.07-4.96.71-7.03-1.68-7.46-8.64-16.84-5.86-23.33-.99-.92.69-1.75,1.49-2.99,2.55Z"/>
        <path class="cls-3" d="m138.18,53.66c2.98,1.35,5.86,2.31,8.14,4.9,10.64,12.08,29.8,12.51,41.31,1.17,1.34-1.32,2.19-3.2,4.2-3.81,1.75-.53,3.28-1.56,5-2.55-2.49,8.21-13.93,18.09-26.78,18.68-14.24.65-29.22-8.03-31.87-18.39Z"/>
      </g>
      <path class="cls-1" d="m154.13,31.65c-1.32-.85-2.89-1.34-4.57-1.34-1.54,0-2.98.41-4.22,1.12-2.55,1.46-4.26,4.21-4.26,7.36,0,4.69,3.8,8.49,8.49,8.49,1.1,0,2.15-.21,3.11-.59,3.15-1.24,5.38-4.31,5.38-7.9,0-3-1.56-5.64-3.91-7.15Zm-.32,1.5h-3.34c.59.47,1.01,1.13,1.13,2.06h2.21v1.01h-2.19c-.2,2.06-1.84,3.38-4.43,3.46,1.58,1.64,3.3,3.7,5,5.78h-1.94c-1.58-1.9-3.05-3.66-4.96-5.68v-1.25h1.11c2.18,0,3.36-.91,3.5-2.31h-4.61v-1.01h4.55c-.28-1.17-1.36-1.76-3.11-1.76h-1.44v-1.32h8.52v1.01Z"/>
      <path class="cls-1" d="m190.35,31.65c-1.32-.85-2.89-1.34-4.57-1.34-1.54,0-2.98.41-4.22,1.12-2.55,1.46-4.26,4.21-4.26,7.36,0,4.69,3.8,8.49,8.49,8.49,1.1,0,2.15-.21,3.11-.59,3.15-1.24,5.38-4.31,5.38-7.9,0-3-1.56-5.64-3.91-7.15Zm-.32,1.5h-3.34c.59.47,1.01,1.13,1.13,2.06h2.21v1.01h-2.19c-.2,2.06-1.84,3.38-4.43,3.46,1.58,1.64,3.3,3.7,5,5.78h-1.94c-1.58-1.9-3.05-3.66-4.96-5.68v-1.25h1.11c2.18,0,3.36-.91,3.5-2.31h-4.61v-1.01h4.55c-.28-1.17-1.36-1.76-3.11-1.76h-1.44v-1.32h8.52v1.01Z"/>
    </g>
  </g>
</svg>